<svg width="211" height="14" viewBox="0 0 211 14" fill="none" xmlns="http://www.w3.org/2000/svg">
<path d="M0.232955 11V0.818182H1.46591V5.35227H6.89489V0.818182H8.12784V11H6.89489V6.44602H1.46591V11H0.232955ZM18.6701 0.818182V11H17.4769L11.9286 3.00568H11.8292V11H10.5962V0.818182H11.7894L17.3576 8.83239H17.457V0.818182H18.6701ZM28.0975 4C27.9881 3.66525 27.8439 3.36529 27.665 3.10014C27.4893 2.83168 27.2788 2.60298 27.0336 2.41406C26.7916 2.22514 26.5165 2.08097 26.2083 1.98153C25.9 1.8821 25.562 1.83239 25.1941 1.83239C24.5909 1.83239 24.0423 1.98816 23.5485 2.29972C23.0546 2.61127 22.6619 3.07031 22.3702 3.67685C22.0785 4.28338 21.9327 5.02746 21.9327 5.90909C21.9327 6.79072 22.0802 7.5348 22.3752 8.14134C22.6702 8.74787 23.0695 9.20691 23.5733 9.51847C24.0771 9.83002 24.6439 9.9858 25.2736 9.9858C25.8569 9.9858 26.3707 9.86151 26.8148 9.61293C27.2623 9.36103 27.6103 9.00639 27.8588 8.54901C28.1107 8.0883 28.2367 7.5464 28.2367 6.9233L28.6145 7.00284H25.552V5.90909H29.4299V7.00284C29.4299 7.84138 29.2509 8.57055 28.8929 9.19034C28.5383 9.81013 28.0478 10.2907 27.4213 10.6321C26.7982 10.9702 26.0823 11.1392 25.2736 11.1392C24.3721 11.1392 23.58 10.9271 22.8972 10.5028C22.2177 10.0786 21.6874 9.47538 21.3063 8.69318C20.9284 7.91098 20.7395 6.98295 20.7395 5.90909C20.7395 5.10369 20.8472 4.3795 21.0627 3.73651C21.2814 3.0902 21.5897 2.54001 21.9874 2.08594C22.3851 1.63187 22.8558 1.28385 23.3993 1.0419C23.9429 0.799952 24.5411 0.678977 25.1941 0.678977C25.731 0.678977 26.2315 0.76018 26.6955 0.922585C27.1628 1.08168 27.5788 1.30871 27.9434 1.60369C28.3113 1.89536 28.6178 2.24503 28.8631 2.6527C29.1084 3.05705 29.2774 3.50616 29.3702 4H28.0975ZM36.712 0.818182V11H35.479V0.818182H36.712ZM40.1983 6.40625V11H39.025V3.36364H40.1586V4.55682H40.258C40.437 4.16903 40.7087 3.85748 41.0733 3.62216C41.4379 3.38352 41.9086 3.2642 42.4853 3.2642C43.0023 3.2642 43.4547 3.37027 43.8425 3.58239C44.2303 3.79119 44.5319 4.10938 44.7473 4.53693C44.9628 4.96117 45.0705 5.49811 45.0705 6.14773V11H43.8972V6.22727C43.8972 5.62737 43.7414 5.16004 43.4299 4.82528C43.1183 4.48722 42.6908 4.31818 42.1472 4.31818C41.7727 4.31818 41.4379 4.39938 41.1429 4.56179C40.8513 4.72419 40.6209 4.96117 40.4519 5.27273C40.2828 5.58428 40.1983 5.96212 40.1983 6.40625ZM50.5355 3.36364V4.35795H46.5781V3.36364H50.5355ZM47.7315 1.53409H48.9048V8.8125C48.9048 9.14394 48.9529 9.39252 49.049 9.55824C49.1484 9.72064 49.2744 9.83002 49.4268 9.88636C49.5826 9.93939 49.7467 9.96591 49.919 9.96591C50.0483 9.96591 50.1544 9.95928 50.2372 9.94602C50.3201 9.92945 50.3864 9.91619 50.4361 9.90625L50.6747 10.9602C50.5952 10.9901 50.4841 11.0199 50.3416 11.0497C50.1991 11.0829 50.0185 11.0994 49.7997 11.0994C49.4683 11.0994 49.1435 11.0282 48.8253 10.8857C48.5104 10.7431 48.2486 10.526 48.0398 10.2344C47.8343 9.94271 47.7315 9.57481 47.7315 9.13068V1.53409ZM55.4201 11.1591C54.6843 11.1591 54.0496 10.9967 53.516 10.6719C52.9857 10.3438 52.5763 9.88636 52.288 9.29972C52.003 8.70975 51.8604 8.02367 51.8604 7.24148C51.8604 6.45928 52.003 5.76989 52.288 5.1733C52.5763 4.57339 52.9774 4.10606 53.4911 3.77131C54.0082 3.43324 54.6114 3.2642 55.3008 3.2642C55.6985 3.2642 56.0913 3.33049 56.479 3.46307C56.8668 3.59564 57.2198 3.81108 57.538 4.10938C57.8562 4.40436 58.1097 4.79545 58.2987 5.28267C58.4876 5.76989 58.582 6.36979 58.582 7.08239V7.57955H52.6957V6.56534H57.3888C57.3888 6.13447 57.3027 5.75 57.1303 5.41193C56.9613 5.07386 56.7193 4.80705 56.4045 4.61151C56.0929 4.41596 55.725 4.31818 55.3008 4.31818C54.8335 4.31818 54.4291 4.43419 54.0877 4.66619C53.7496 4.89489 53.4895 5.19318 53.3072 5.56108C53.1249 5.92898 53.0337 6.32339 53.0337 6.74432V7.42045C53.0337 7.99716 53.1332 8.48603 53.332 8.88707C53.5342 9.2848 53.8143 9.58807 54.1722 9.79688C54.5302 10.0024 54.9461 10.1051 55.4201 10.1051C55.7283 10.1051 56.0067 10.062 56.2553 9.97585C56.5072 9.88636 56.7243 9.75379 56.9066 9.57812C57.0889 9.39915 57.2298 9.17708 57.3292 8.91193L58.4627 9.23011C58.3434 9.61458 58.1429 9.95265 57.8612 10.2443C57.5794 10.5327 57.2314 10.758 56.8171 10.9205C56.4028 11.0795 55.9371 11.1591 55.4201 11.1591ZM60.3668 11V3.36364H61.5004V4.51705H61.5799C61.7191 4.1392 61.971 3.83262 62.3356 3.5973C62.7002 3.36198 63.1112 3.24432 63.5685 3.24432C63.6547 3.24432 63.7624 3.24597 63.8917 3.24929C64.021 3.2526 64.1187 3.25758 64.185 3.2642V4.45739C64.1452 4.44744 64.0541 4.43253 63.9116 4.41264C63.7724 4.38944 63.6249 4.37784 63.4691 4.37784C63.0979 4.37784 62.7665 4.45573 62.4748 4.61151C62.1864 4.76397 61.9577 4.97609 61.7887 5.24787C61.623 5.51634 61.5401 5.82292 61.5401 6.16761V11H60.3668ZM66.7491 6.40625V11H65.5758V3.36364H66.7093V4.55682H66.8088C66.9877 4.16903 67.2595 3.85748 67.6241 3.62216C67.9887 3.38352 68.4593 3.2642 69.036 3.2642C69.5531 3.2642 70.0055 3.37027 70.3933 3.58239C70.7811 3.79119 71.0827 4.10938 71.2981 4.53693C71.5136 4.96117 71.6213 5.49811 71.6213 6.14773V11H70.448V6.22727C70.448 5.62737 70.2922 5.16004 69.9806 4.82528C69.6691 4.48722 69.2415 4.31818 68.698 4.31818C68.3234 4.31818 67.9887 4.39938 67.6937 4.56179C67.402 4.72419 67.1717 4.96117 67.0027 5.27273C66.8336 5.58428 66.7491 5.96212 66.7491 6.40625ZM79.1744 5.07386L78.1204 5.37216C78.0541 5.1965 77.9563 5.0258 77.8271 4.86009C77.7011 4.69105 77.5288 4.55185 77.31 4.44247C77.0913 4.3331 76.8112 4.27841 76.4698 4.27841C76.0025 4.27841 75.613 4.38613 75.3015 4.60156C74.9933 4.81368 74.8391 5.08381 74.8391 5.41193C74.8391 5.7036 74.9452 5.93395 75.1573 6.10298C75.3694 6.27202 75.7009 6.41288 76.1516 6.52557L77.2852 6.80398C77.9679 6.9697 78.4767 7.22325 78.8114 7.56463C79.1462 7.9027 79.3136 8.33854 79.3136 8.87216C79.3136 9.30966 79.1876 9.70076 78.9357 10.0455C78.6871 10.3902 78.3391 10.6619 77.8917 10.8608C77.4442 11.0597 76.9239 11.1591 76.3306 11.1591C75.5517 11.1591 74.9071 10.9901 74.3967 10.652C73.8862 10.3139 73.5631 9.82008 73.4272 9.17045L74.5408 8.89205C74.6469 9.30303 74.8474 9.61127 75.1424 9.81676C75.4407 10.0223 75.8301 10.125 76.3107 10.125C76.8576 10.125 77.2918 10.009 77.6133 9.77699C77.9381 9.54167 78.1005 9.25994 78.1005 8.93182C78.1005 8.66667 78.0077 8.4446 77.8221 8.26562C77.6365 8.08333 77.3514 7.94744 76.967 7.85795L75.6942 7.55966C74.9949 7.39394 74.4812 7.13707 74.1531 6.78906C73.8282 6.43774 73.6658 5.99858 73.6658 5.47159C73.6658 5.04072 73.7868 4.65956 74.0288 4.32812C74.274 3.99669 74.6071 3.73651 75.0281 3.54758C75.4523 3.35866 75.9329 3.2642 76.4698 3.2642C77.2255 3.2642 77.8188 3.42992 78.2496 3.76136C78.6838 4.0928 78.9921 4.5303 79.1744 5.07386ZM82.253 6.40625V11H81.0797V0.818182H82.253V4.55682H82.3525C82.5314 4.16241 82.7999 3.84919 83.1578 3.61719C83.5191 3.38187 83.9997 3.2642 84.5996 3.2642C85.12 3.2642 85.5757 3.36861 85.9668 3.57741C86.3579 3.78291 86.6612 4.09943 86.8766 4.52699C87.0953 4.95123 87.2047 5.49148 87.2047 6.14773V11H86.0314V6.22727C86.0314 5.62074 85.874 5.15175 85.5591 4.82031C85.2476 4.48556 84.815 4.31818 84.2615 4.31818C83.8771 4.31818 83.5324 4.39938 83.2275 4.56179C82.9258 4.72419 82.6872 4.96117 82.5115 5.27273C82.3392 5.58428 82.253 5.96212 82.253 6.40625ZM89.3512 11V3.36364H90.5245V11H89.3512ZM89.9478 2.09091C89.7191 2.09091 89.5219 2.01302 89.3562 1.85724C89.1938 1.70147 89.1126 1.5142 89.1126 1.29545C89.1126 1.0767 89.1938 0.889441 89.3562 0.733664C89.5219 0.577888 89.7191 0.5 89.9478 0.5C90.1765 0.5 90.372 0.577888 90.5344 0.733664C90.7002 0.889441 90.783 1.0767 90.783 1.29545C90.783 1.5142 90.7002 1.70147 90.5344 1.85724C90.372 2.01302 90.1765 2.09091 89.9478 2.09091ZM92.6735 13.8636V3.36364H93.807V4.5767H93.9462C94.0324 4.44413 94.1517 4.27509 94.3042 4.0696C94.4599 3.8608 94.682 3.67519 94.9703 3.51278C95.262 3.34706 95.6564 3.2642 96.1536 3.2642C96.7966 3.2642 97.3633 3.42495 97.8539 3.74645C98.3444 4.06794 98.7272 4.52367 99.0023 5.11364C99.2774 5.7036 99.415 6.39962 99.415 7.2017C99.415 8.01042 99.2774 8.71141 99.0023 9.30469C98.7272 9.89465 98.3461 10.352 97.8588 10.6768C97.3716 10.9983 96.8098 11.1591 96.1735 11.1591C95.6829 11.1591 95.2902 11.0779 94.9952 10.9155C94.7002 10.7498 94.4732 10.5625 94.3141 10.3537C94.155 10.1416 94.0324 9.96591 93.9462 9.8267H93.8468V13.8636H92.6735ZM93.8269 7.18182C93.8269 7.75852 93.9114 8.26728 94.0804 8.7081C94.2495 9.1456 94.4964 9.48864 94.8212 9.73722C95.146 9.98248 95.5437 10.1051 96.0144 10.1051C96.5049 10.1051 96.9142 9.97585 97.2424 9.71733C97.5738 9.45549 97.8224 9.10417 97.9881 8.66335C98.1571 8.21922 98.2417 7.72538 98.2417 7.18182C98.2417 6.64489 98.1588 6.16098 97.9931 5.73011C97.8307 5.29593 97.5837 4.95289 97.2523 4.70099C96.9242 4.44579 96.5115 4.31818 96.0144 4.31818C95.5371 4.31818 95.1361 4.43916 94.8113 4.68111C94.4864 4.91974 94.2412 5.2545 94.0755 5.68537C93.9097 6.11293 93.8269 6.61174 93.8269 7.18182ZM108.364 0.678977C108.781 0.682291 109.199 0.761837 109.617 0.917613C110.034 1.07339 110.415 1.33191 110.76 1.69318C111.105 2.05114 111.382 2.54001 111.59 3.1598C111.799 3.77959 111.904 4.55682 111.904 5.49148C111.904 6.39631 111.817 7.20005 111.645 7.9027C111.476 8.60204 111.231 9.192 110.909 9.67259C110.591 10.1532 110.203 10.5178 109.746 10.7663C109.292 11.0149 108.778 11.1392 108.205 11.1392C107.635 11.1392 107.126 11.0265 106.678 10.8011C106.234 10.5724 105.87 10.2559 105.585 9.85156C105.303 9.44389 105.122 8.97159 105.043 8.43466H106.256C106.365 8.90199 106.582 9.28812 106.907 9.59304C107.235 9.89465 107.668 10.0455 108.205 10.0455C108.99 10.0455 109.61 9.70241 110.064 9.01634C110.521 8.33026 110.75 7.3608 110.75 6.10795H110.671C110.485 6.38636 110.265 6.62666 110.009 6.82884C109.754 7.03101 109.471 7.18679 109.159 7.29616C108.848 7.40554 108.516 7.46023 108.165 7.46023C107.582 7.46023 107.046 7.31605 106.559 7.0277C106.075 6.73603 105.687 6.33665 105.396 5.82955C105.107 5.31913 104.963 4.7358 104.963 4.07955C104.963 3.45644 105.102 2.88636 105.381 2.36932C105.663 1.84896 106.057 1.43466 106.564 1.12642C107.075 0.818182 107.674 0.669034 108.364 0.678977ZM108.364 1.77273C107.946 1.77273 107.57 1.87713 107.235 2.08594C106.904 2.29143 106.64 2.56984 106.445 2.92116C106.253 3.26918 106.156 3.6553 106.156 4.07955C106.156 4.50379 106.249 4.88991 106.435 5.23793C106.624 5.58262 106.881 5.85772 107.205 6.06321C107.534 6.26539 107.906 6.36648 108.324 6.36648C108.639 6.36648 108.932 6.30516 109.204 6.18253C109.476 6.05658 109.713 5.88589 109.915 5.67045C110.12 5.4517 110.281 5.20478 110.397 4.92969C110.513 4.65128 110.571 4.36127 110.571 4.05966C110.571 3.66193 110.475 3.28906 110.283 2.94105C110.094 2.59304 109.832 2.31132 109.497 2.09588C109.166 1.88044 108.788 1.77273 108.364 1.77273ZM117.975 11V0.818182H124.08V1.91193H119.208V5.35227H123.623V6.44602H119.208V11H117.975ZM125.951 11V3.36364H127.084V4.51705H127.164C127.303 4.1392 127.555 3.83262 127.92 3.5973C128.284 3.36198 128.695 3.24432 129.153 3.24432C129.239 3.24432 129.346 3.24597 129.476 3.24929C129.605 3.2526 129.703 3.25758 129.769 3.2642V4.45739C129.729 4.44744 129.638 4.43253 129.496 4.41264C129.356 4.38944 129.209 4.37784 129.053 4.37784C128.682 4.37784 128.35 4.45573 128.059 4.61151C127.77 4.76397 127.542 4.97609 127.373 5.24787C127.207 5.51634 127.124 5.82292 127.124 6.16761V11H125.951ZM134.03 11.1591C133.34 11.1591 132.735 10.995 132.215 10.6669C131.698 10.3388 131.294 9.87973 131.002 9.28977C130.714 8.69981 130.569 8.01042 130.569 7.22159C130.569 6.42614 130.714 5.73177 131.002 5.13849C131.294 4.54522 131.698 4.08452 132.215 3.75639C132.735 3.42827 133.34 3.2642 134.03 3.2642C134.719 3.2642 135.322 3.42827 135.839 3.75639C136.36 4.08452 136.764 4.54522 137.052 5.13849C137.344 5.73177 137.49 6.42614 137.49 7.22159C137.49 8.01042 137.344 8.69981 137.052 9.28977C136.764 9.87973 136.36 10.3388 135.839 10.6669C135.322 10.995 134.719 11.1591 134.03 11.1591ZM134.03 10.1051C134.553 10.1051 134.984 9.97088 135.322 9.70241C135.66 9.43395 135.911 9.08097 136.073 8.64347C136.235 8.20597 136.317 7.73201 136.317 7.22159C136.317 6.71117 136.235 6.23556 136.073 5.79474C135.911 5.35393 135.66 4.99763 135.322 4.72585C134.984 4.45407 134.553 4.31818 134.03 4.31818C133.506 4.31818 133.075 4.45407 132.737 4.72585C132.399 4.99763 132.149 5.35393 131.986 5.79474C131.824 6.23556 131.743 6.71117 131.743 7.22159C131.743 7.73201 131.824 8.20597 131.986 8.64347C132.149 9.08097 132.399 9.43395 132.737 9.70241C133.075 9.97088 133.506 10.1051 134.03 10.1051ZM140.454 6.40625V11H139.281V3.36364H140.414V4.55682H140.514C140.693 4.16903 140.965 3.85748 141.329 3.62216C141.694 3.38352 142.164 3.2642 142.741 3.2642C143.258 3.2642 143.711 3.37027 144.098 3.58239C144.486 3.79119 144.788 4.10938 145.003 4.53693C145.219 4.96117 145.326 5.49811 145.326 6.14773V11H144.153V6.22727C144.153 5.62737 143.997 5.16004 143.686 4.82528C143.374 4.48722 142.947 4.31818 142.403 4.31818C142.029 4.31818 141.694 4.39938 141.399 4.56179C141.107 4.72419 140.877 4.96117 140.708 5.27273C140.539 5.58428 140.454 5.96212 140.454 6.40625ZM150.791 3.36364V4.35795H146.834V3.36364H150.791ZM147.987 1.53409H149.161V8.8125C149.161 9.14394 149.209 9.39252 149.305 9.55824C149.404 9.72064 149.53 9.83002 149.683 9.88636C149.838 9.93939 150.003 9.96591 150.175 9.96591C150.304 9.96591 150.41 9.95928 150.493 9.94602C150.576 9.92945 150.642 9.91619 150.692 9.90625L150.931 10.9602C150.851 10.9901 150.74 11.0199 150.597 11.0497C150.455 11.0829 150.274 11.0994 150.056 11.0994C149.724 11.0994 149.399 11.0282 149.081 10.8857C148.766 10.7431 148.504 10.526 148.296 10.2344C148.09 9.94271 147.987 9.57481 147.987 9.13068V1.53409ZM155.676 11.1591C154.94 11.1591 154.305 10.9967 153.772 10.6719C153.242 10.3438 152.832 9.88636 152.544 9.29972C152.259 8.70975 152.116 8.02367 152.116 7.24148C152.116 6.45928 152.259 5.76989 152.544 5.1733C152.832 4.57339 153.233 4.10606 153.747 3.77131C154.264 3.43324 154.867 3.2642 155.557 3.2642C155.954 3.2642 156.347 3.33049 156.735 3.46307C157.123 3.59564 157.476 3.81108 157.794 4.10938C158.112 4.40436 158.366 4.79545 158.555 5.28267C158.743 5.76989 158.838 6.36979 158.838 7.08239V7.57955H152.952V6.56534H157.645C157.645 6.13447 157.559 5.75 157.386 5.41193C157.217 5.07386 156.975 4.80705 156.66 4.61151C156.349 4.41596 155.981 4.31818 155.557 4.31818C155.089 4.31818 154.685 4.43419 154.344 4.66619C154.006 4.89489 153.745 5.19318 153.563 5.56108C153.381 5.92898 153.29 6.32339 153.29 6.74432V7.42045C153.29 7.99716 153.389 8.48603 153.588 8.88707C153.79 9.2848 154.07 9.58807 154.428 9.79688C154.786 10.0024 155.202 10.1051 155.676 10.1051C155.984 10.1051 156.263 10.062 156.511 9.97585C156.763 9.88636 156.98 9.75379 157.162 9.57812C157.345 9.39915 157.486 9.17708 157.585 8.91193L158.719 9.23011C158.599 9.61458 158.399 9.95265 158.117 10.2443C157.835 10.5327 157.487 10.758 157.073 10.9205C156.659 11.0795 156.193 11.1591 155.676 11.1591ZM161.796 6.40625V11H160.623V3.36364H161.756V4.55682H161.856C162.035 4.16903 162.306 3.85748 162.671 3.62216C163.036 3.38352 163.506 3.2642 164.083 3.2642C164.6 3.2642 165.052 3.37027 165.44 3.58239C165.828 3.79119 166.13 4.10938 166.345 4.53693C166.56 4.96117 166.668 5.49811 166.668 6.14773V11H165.495V6.22727C165.495 5.62737 165.339 5.16004 165.028 4.82528C164.716 4.48722 164.288 4.31818 163.745 4.31818C163.37 4.31818 163.036 4.39938 162.741 4.56179C162.449 4.72419 162.219 4.96117 162.05 5.27273C161.881 5.58428 161.796 5.96212 161.796 6.40625ZM171.696 11.1591C171.059 11.1591 170.498 10.9983 170.01 10.6768C169.523 10.352 169.142 9.89465 168.867 9.30469C168.592 8.71141 168.454 8.01042 168.454 7.2017C168.454 6.39962 168.592 5.7036 168.867 5.11364C169.142 4.52367 169.525 4.06794 170.015 3.74645C170.506 3.42495 171.073 3.2642 171.716 3.2642C172.213 3.2642 172.605 3.34706 172.894 3.51278C173.185 3.67519 173.408 3.8608 173.56 4.0696C173.716 4.27509 173.837 4.44413 173.923 4.5767H174.022V0.818182H175.196V11H174.062V9.8267H173.923C173.837 9.96591 173.714 10.1416 173.555 10.3537C173.396 10.5625 173.169 10.7498 172.874 10.9155C172.579 11.0779 172.186 11.1591 171.696 11.1591ZM171.855 10.1051C172.325 10.1051 172.723 9.98248 173.048 9.73722C173.373 9.48864 173.62 9.1456 173.789 8.7081C173.958 8.26728 174.042 7.75852 174.042 7.18182C174.042 6.61174 173.959 6.11293 173.794 5.68537C173.628 5.2545 173.383 4.91974 173.058 4.68111C172.733 4.43916 172.332 4.31818 171.855 4.31818C171.358 4.31818 170.943 4.44579 170.612 4.70099C170.284 4.95289 170.037 5.29593 169.871 5.73011C169.709 6.16098 169.627 6.64489 169.627 7.18182C169.627 7.72538 169.71 8.21922 169.876 8.66335C170.045 9.10417 170.294 9.45549 170.622 9.71733C170.953 9.97585 171.364 10.1051 171.855 10.1051ZM181.047 1.91193V0.818182H188.684V1.91193H185.482V11H184.249V1.91193H181.047ZM191.635 11.179C191.152 11.179 190.712 11.0878 190.318 10.9055C189.924 10.7199 189.61 10.4531 189.378 10.1051C189.146 9.75379 189.03 9.32955 189.03 8.83239C189.03 8.39489 189.117 8.04025 189.289 7.76847C189.461 7.49337 189.692 7.27794 189.98 7.12216C190.268 6.96638 190.586 6.85038 190.934 6.77415C191.286 6.6946 191.639 6.63163 191.993 6.58523C192.457 6.52557 192.834 6.48082 193.122 6.45099C193.414 6.41785 193.626 6.36316 193.758 6.28693C193.894 6.2107 193.962 6.07812 193.962 5.8892V5.84943C193.962 5.3589 193.828 4.97775 193.559 4.70597C193.294 4.43419 192.892 4.2983 192.351 4.2983C191.791 4.2983 191.352 4.42093 191.034 4.66619C190.716 4.91146 190.492 5.1733 190.363 5.4517L189.249 5.05398C189.448 4.58996 189.713 4.22869 190.045 3.97017C190.379 3.70833 190.744 3.52604 191.138 3.4233C191.536 3.31723 191.927 3.2642 192.312 3.2642C192.557 3.2642 192.839 3.29403 193.157 3.35369C193.478 3.41004 193.788 3.5277 194.086 3.70668C194.388 3.88565 194.638 4.15578 194.837 4.51705C195.036 4.87831 195.135 5.36222 195.135 5.96875V11H193.962V9.96591H193.903C193.823 10.1316 193.69 10.3089 193.505 10.4979C193.319 10.6868 193.072 10.8475 192.764 10.9801C192.456 11.1127 192.08 11.179 191.635 11.179ZM191.814 10.125C192.278 10.125 192.67 10.0339 192.988 9.85156C193.309 9.66927 193.551 9.43395 193.714 9.1456C193.879 8.85724 193.962 8.55398 193.962 8.2358V7.16193C193.912 7.22159 193.803 7.27628 193.634 7.32599C193.468 7.3724 193.276 7.41383 193.057 7.45028C192.842 7.48343 192.631 7.51326 192.426 7.53977C192.224 7.56297 192.06 7.58286 191.934 7.59943C191.629 7.6392 191.344 7.70384 191.079 7.79332C190.817 7.8795 190.605 8.01042 190.442 8.18608C190.283 8.35843 190.204 8.59375 190.204 8.89205C190.204 9.29972 190.354 9.60795 190.656 9.81676C190.961 10.0223 191.347 10.125 191.814 10.125ZM202.686 5.07386L201.632 5.37216C201.566 5.1965 201.468 5.0258 201.339 4.86009C201.213 4.69105 201.04 4.55185 200.822 4.44247C200.603 4.3331 200.323 4.27841 199.982 4.27841C199.514 4.27841 199.125 4.38613 198.813 4.60156C198.505 4.81368 198.351 5.08381 198.351 5.41193C198.351 5.7036 198.457 5.93395 198.669 6.10298C198.881 6.27202 199.213 6.41288 199.663 6.52557L200.797 6.80398C201.48 6.9697 201.988 7.22325 202.323 7.56463C202.658 7.9027 202.825 8.33854 202.825 8.87216C202.825 9.30966 202.699 9.70076 202.447 10.0455C202.199 10.3902 201.851 10.6619 201.403 10.8608C200.956 11.0597 200.436 11.1591 199.842 11.1591C199.063 11.1591 198.419 10.9901 197.908 10.652C197.398 10.3139 197.075 9.82008 196.939 9.17045L198.053 8.89205C198.159 9.30303 198.359 9.61127 198.654 9.81676C198.952 10.0223 199.342 10.125 199.822 10.125C200.369 10.125 200.804 10.009 201.125 9.77699C201.45 9.54167 201.612 9.25994 201.612 8.93182C201.612 8.66667 201.519 8.4446 201.334 8.26562C201.148 8.08333 200.863 7.94744 200.479 7.85795L199.206 7.55966C198.507 7.39394 197.993 7.13707 197.665 6.78906C197.34 6.43774 197.178 5.99858 197.178 5.47159C197.178 5.04072 197.299 4.65956 197.54 4.32812C197.786 3.99669 198.119 3.73651 198.54 3.54758C198.964 3.35866 199.445 3.2642 199.982 3.2642C200.737 3.2642 201.33 3.42992 201.761 3.76136C202.196 4.0928 202.504 4.5303 202.686 5.07386ZM205.685 8.21591L205.665 6.7642H205.904L209.245 3.36364H210.697L207.137 6.96307H207.037L205.685 8.21591ZM204.591 11V0.818182H205.765V11H204.591ZM209.444 11L206.461 7.22159L207.296 6.40625L210.935 11H209.444Z" fill="#667085"/>
</svg>
